<svg width="39" height="38" viewBox="0 0 39 38" fill="none" xmlns="http://www.w3.org/2000/svg">
<path d="M8.99063 19.5972C7.75751 19.9032 7.10642 21.2361 7.59967 22.4109C10.6282 29.697 18.609 33.8534 26.4714 31.869C35.1329 29.6871 40.3811 20.8905 38.1911 12.2223L8.99063 19.5972Z" fill="#EB3F50"/>
<path d="M38.1911 12.2223C36.0109 3.56399 27.2212 -1.68828 18.5597 0.493582C18.5597 0.493582 20.6018 7.9376 22.8904 16.0826L38.1911 12.2223Z" fill="#2C308D"/>
<path d="M35.0737 33.5573C37.2422 33.5573 39 31.7981 39 29.6279C39 27.4578 37.2422 25.6986 35.0737 25.6986C32.9053 25.6986 31.1475 27.4578 31.1475 29.6279C31.1475 31.7981 32.9053 33.5573 35.0737 33.5573Z" fill="#F9CF6F"/>
<path d="M20.9174 37.9999C23.0858 37.9999 24.8437 36.2407 24.8437 34.0706C24.8437 31.9005 23.0858 30.1412 20.9174 30.1412C18.749 30.1412 16.9911 31.9005 16.9911 34.0706C16.9911 36.2407 18.749 37.9999 20.9174 37.9999Z" fill="#F9CF6F"/>
<path d="M11.1314 20.545C9.2866 18.7679 6.99792 17.5634 4.47248 17.1389C2.55866 16.8131 1.73 19.7552 3.66354 20.081C5.69574 20.4265 7.49117 21.2657 8.98078 22.6972C10.3915 24.0597 12.5519 21.9074 11.1314 20.545Z" fill="#2C308D"/>
<path d="M2.96312 20.4068C5.57735 20.4068 5.57735 16.3392 2.96312 16.3392C0.348893 16.3392 0.339028 20.4068 2.96312 20.4068Z" fill="#2C308D"/>
</svg>
